<svg width="25" height="28" viewBox="0 0 25 28" fill="none" xmlns="http://www.w3.org/2000/svg"><g clip-path="url(#clip0)"><path d="M15.696 8.534L.902.078a.596.596 0 00-.6.006c-.186.108-.3.3-.3.516 0 0 .006.78.012 2.063L10.79 13.439l4.905-4.905z" fill="url(#paint0_linear)"/><path d="M.014 2.663C.032 7.293.086 18.53.11 24.126L10.796 13.44.014 2.663z" fill="url(#paint1_linear)"/><path d="M24.164 13.373l-8.468-4.84-4.912 4.906 5.542 5.541 7.844-4.57a.6.6 0 00.3-.515.608.608 0 00-.306-.522z" fill="url(#paint2_linear)"/><path d="M.104 24.126C.116 26.123.122 27.4.122 27.4c0 .216.114.414.3.516a.596.596 0 00.6 0l15.31-8.93-5.542-5.54L.104 24.125z" fill="url(#paint3_linear)"/></g><defs><linearGradient id="paint0_linear" x1=".002" y1="6.722" x2="15.699" y2="6.722" gradientUnits="userSpaceOnUse"><stop stop-color="#63BE6B"/><stop offset=".506" stop-color="#5BBC6A"/><stop offset="1" stop-color="#4AB96A"/></linearGradient><linearGradient id="paint1_linear" x1=".011" y1="13.397" x2="10.79" y2="13.397" gradientUnits="userSpaceOnUse"><stop stop-color="#3EC6F2"/><stop offset="1" stop-color="#45AFE3"/></linearGradient><linearGradient id="paint2_linear" x1="10.79" y1="13.761" x2="24.468" y2="13.761" gradientUnits="userSpaceOnUse"><stop stop-color="#FAA51A"/><stop offset=".387" stop-color="#FAB716"/><stop offset=".741" stop-color="#FAC412"/><stop offset="1" stop-color="#FAC80F"/></linearGradient><linearGradient id="paint3_linear" x1=".106" y1="20.721" x2="16.331" y2="20.721" gradientUnits="userSpaceOnUse"><stop stop-color="#EC3B50"/><stop offset="1" stop-color="#E7515B"/></linearGradient><clipPath id="clip0"><path fill="#fff" d="M0 0h24.472v28H0z"/></clipPath></defs></svg>
