<svg width="40" height="40" viewBox="0 0 1024 1024" fill="none" xmlns="http://www.w3.org/2000/svg">
    <mask maskUnits="userSpaceOnUse" x="0" y="0" width="1024" height="1024">
        <circle cx="512" cy="512" r="512" fill="#C4C4C4"/>
    </mask>
    <g>
        <rect width="1024" height="1024" fill="#C4C4C4"/>
        <g>
            <rect width="1024" height="1024" fill="url(#paint0_linear)"/>
            <rect x="956.985" y="956.984" width="888.583" height="888.583" rx="444.291" transform="rotate(180 956.985 956.984)" fill="url(#paint1_linear)"/>
            <path fill-rule="evenodd" clip-rule="evenodd" d="M674.651 356.472C709.311 380.231 742.009 420.425 735.445 478.408C755.099 494.642 766.103 515.093 773.178 529.233C775.38 533.295 778.101 537.138 781.282 541.63C782.303 543.072 783.371 544.581 784.485 546.185C788.799 552.4 793.574 559.79 796.358 568.289C799.25 577.118 799.943 586.945 796.556 597.828C793.393 607.992 786.88 618.416 776.563 629.504C762.823 661.297 738.48 679.976 711.315 686.061C706.919 698.638 699.802 712.015 688.16 722.469C674.097 735.097 654.461 742.526 628.075 740.426C609.848 739.113 594.661 731.04 583.777 721.244C579.681 737.56 574.448 751.036 566.759 763.91C555.743 782.355 540.082 798.87 517.345 820.659C514.606 823.285 510.716 824.331 507.029 823.436C503.342 822.54 500.367 819.825 499.137 816.235C476.251 749.408 442.595 710.808 406.489 680.873C391.17 668.171 375.479 657.078 359.634 645.877C356.565 643.707 353.49 641.533 350.41 639.343C331.605 625.966 312.788 612.065 295.572 595.341L295.457 595.227L295.351 595.121C279.933 579.704 247.885 547.656 233.874 493.614L233.816 493.377C213.106 405.608 236.785 336.291 276.999 287.585C316.822 239.352 372.775 211.412 417.235 205.333C503.724 192.711 570.204 210.528 614.17 242.618C655.582 272.845 676.94 315.876 674.651 356.472ZM601.063 260.576C562.692 232.569 502.36 215.367 420.397 227.339L420.292 227.355L420.292 227.354C381.469 232.648 330.497 257.709 294.143 301.74C258.181 345.296 236.432 407.503 255.426 488.152C267.884 536.074 296.205 564.533 311.12 579.449C327.016 594.882 344.62 607.941 363.297 621.227C366.269 623.341 369.272 625.463 372.299 627.602C388.146 638.802 404.643 650.462 420.68 663.758C456.3 693.291 489.982 731.134 514.174 792.699C529.796 777.12 540.147 765.111 547.672 752.51C556.856 737.133 562.226 720.184 566.847 693.379C567.684 688.527 571.613 684.803 576.503 684.228C581.393 683.653 586.079 686.363 588.019 690.889C592.264 700.793 607.846 716.693 629.705 718.254L629.799 718.261L629.799 718.261C650.713 719.934 664.189 714.114 673.306 705.927C682.766 697.433 688.58 685.432 692.051 673.284C693.256 669.068 696.826 665.954 701.167 665.334C723.674 662.118 745.032 647.736 756.822 619.102C757.35 617.821 758.111 616.651 759.068 615.65C768.743 605.536 773.37 597.515 775.328 591.222C777.207 585.186 776.834 580.106 775.231 575.211C773.519 569.986 770.367 564.834 766.222 558.863C765.414 557.699 764.547 556.477 763.648 555.21C760.28 550.462 756.455 545.069 753.528 539.633C753.475 539.535 753.423 539.435 753.373 539.335C745.916 524.422 735.541 505.71 717.024 492.242C713.636 489.778 711.921 485.618 712.588 481.482C721.064 428.93 691.003 392.943 657.051 371.499C653.407 369.198 651.422 364.998 651.956 360.722C656.097 327.592 639.604 288.706 601.063 260.576Z" fill="#000201"/>
            <path fill-rule="evenodd" clip-rule="evenodd" d="M587.514 367.259C589.03 335.424 556.766 308.465 522.037 317.936L521.825 317.994L521.612 318.043C482.452 327.08 470.436 384.446 508.241 409.649C513.349 413.055 514.73 419.956 511.324 425.065C507.919 430.173 501.017 431.553 495.909 428.148C442.914 392.818 457.301 310.259 516.398 296.43C564.887 283.351 611.988 320.714 609.722 368.316C609.43 374.449 604.222 379.183 598.089 378.891C591.957 378.599 587.222 373.391 587.514 367.259Z" fill="#000201"/>
            <path fill-rule="evenodd" clip-rule="evenodd" d="M538.001 354.462C543.265 351.304 550.094 353.011 553.252 358.275C559.943 369.426 566.911 387.845 560.047 410.727C558.283 416.608 552.085 419.945 546.205 418.18C540.325 416.416 536.988 410.219 538.752 404.339C543.245 389.361 538.856 377.493 534.188 369.713C531.03 364.449 532.737 357.621 538.001 354.462Z" fill="#000201"/>
            <path fill-rule="evenodd" clip-rule="evenodd" d="M759.247 582.149C765.267 580.945 771.123 584.849 772.327 590.869C772.94 593.935 773.739 596.857 774.624 600.095C774.98 601.396 775.349 602.748 775.726 604.181C776.913 608.689 778.222 614.186 778.222 619.551C778.222 625.69 773.245 630.667 767.106 630.667C760.967 630.667 755.99 625.69 755.99 619.551C755.99 617.344 755.406 614.322 754.226 609.839C753.966 608.85 753.671 607.771 753.359 606.629C752.411 603.163 751.304 599.116 750.527 595.229C749.323 589.209 753.227 583.353 759.247 582.149Z" fill="#000201"/>
            <path fill-rule="evenodd" clip-rule="evenodd" d="M669.426 633.433C673.261 628.639 680.256 627.862 685.05 631.697C690.743 636.252 697.067 643.182 702.182 650.088C707.031 656.634 712.151 664.951 713.615 672.271C714.819 678.291 710.915 684.147 704.895 685.351C698.875 686.555 693.019 682.651 691.815 676.631C691.386 674.487 688.933 669.552 684.317 663.321C679.968 657.449 674.933 652.075 671.162 649.057C666.368 645.222 665.59 638.227 669.426 633.433Z" fill="#000201"/>
            <path fill-rule="evenodd" clip-rule="evenodd" d="M571.455 608.745C577.431 607.339 583.416 611.043 584.822 617.019C592.89 651.309 588.826 687.133 586.925 702.343C586.163 708.435 580.607 712.756 574.516 711.995C568.424 711.233 564.103 705.677 564.864 699.585C566.749 684.508 570.257 652.184 563.181 622.111C561.775 616.135 565.479 610.151 571.455 608.745Z" fill="#000201"/>
            <path fill-rule="evenodd" clip-rule="evenodd" d="M649.25 478.271C651.996 472.78 658.673 470.554 664.164 473.3C668.377 475.406 670.346 475.82 674.153 476.621C675.874 476.984 677.97 477.425 680.819 478.137C686.775 479.626 690.396 485.661 688.907 491.617C687.418 497.573 681.383 501.194 675.427 499.705C674.036 499.358 672.634 499.063 671.19 498.76C666.409 497.755 661.154 496.651 654.221 493.185C648.73 490.439 646.505 483.762 649.25 478.271Z" fill="#000201"/>
            <path fill-rule="evenodd" clip-rule="evenodd" d="M481.962 375.489C486.069 380.052 485.699 387.08 481.136 391.187C474.383 397.266 468.289 410.114 468.488 424.655C468.678 438.53 474.607 453.435 491.164 464.499C525.192 486.534 549.268 514.721 567.129 554.412C569.648 560.01 567.152 566.591 561.554 569.11C555.955 571.63 549.374 569.133 546.855 563.535C530.653 527.532 509.318 502.726 479.019 483.121L478.891 483.039L478.892 483.038C455.741 467.604 446.541 445.615 446.258 424.96C445.984 404.954 454.087 385.621 466.264 374.662C470.827 370.555 477.856 370.925 481.962 375.489Z" fill="#000201"/>
            <path fill-rule="evenodd" clip-rule="evenodd" d="M339.986 393.704C361.81 335.165 424.558 290.373 500.501 305.767C506.518 306.986 510.406 312.853 509.187 318.869C507.967 324.886 502.101 328.775 496.084 327.556C431.945 314.555 379.22 352.108 360.818 401.47C351.654 426.049 351.146 453.256 361.845 478.423C372.512 503.518 394.755 527.58 432.887 545.076L433.174 545.207L433.452 545.355C483.107 571.642 515.054 601.298 535.939 635.52C556.735 669.594 566.006 707.306 571.771 748.622C572.619 754.702 568.378 760.319 562.297 761.167C556.217 762.016 550.6 757.775 549.752 751.694C544.159 711.611 535.446 677.389 516.962 647.101C498.603 617.019 470.05 589.932 423.324 565.148C381.172 545.737 354.526 518.035 341.384 487.121C328.243 456.208 329.036 423.075 339.986 393.704Z" fill="#000201"/>
        </g>
    </g>
    <defs>
        <linearGradient id="paint0_linear" x1="536" y1="1043" x2="536" y2="-45" gradientUnits="userSpaceOnUse">
            <stop stop-color="#E3589E"/>
            <stop offset="0.665454" stop-color="#FFACD6"/>
            <stop offset="1" stop-color="#F7B7D7"/>
        </linearGradient>
        <linearGradient id="paint1_linear" x1="1599.46" y1="1810.54" x2="1599.46" y2="781.241" gradientUnits="userSpaceOnUse">
            <stop offset="0.0829577" stop-color="#E661A4"/>
            <stop offset="1" stop-color="#FEADD6"/>
        </linearGradient>
    </defs>
</svg>
