<svg width="40" height="40" viewBox="0 0 40 40" fill="none" xmlns="http://www.w3.org/2000/svg"><rect x="1" y="1" width="38" height="38" rx="19" fill="#E37CB0" stroke="#E37CB0" stroke-width="2"/><path fill-rule="evenodd" clip-rule="evenodd" d="M26.662 13.574c1.425.977 2.77 2.63 2.5 5.016.809.667 1.261 1.509 1.552 2.09.09.167.203.325.334.51.042.06.086.121.131.188.178.255.374.56.489.909.119.363.147.767.008 1.215-.13.418-.398.847-.822 1.303-.566 1.307-1.567 2.076-2.684 2.326-.181.517-.474 1.067-.953 1.497-.578.52-1.386.825-2.471.74a3.06 3.06 0 01-1.822-.79c-.169.671-.384 1.226-.7 1.755-.453.759-1.098 1.438-2.033 2.334a.457.457 0 01-.749-.182c-.941-2.748-2.326-4.336-3.81-5.567-.63-.523-1.276-.98-1.928-1.44l-.38-.269c-.773-.55-1.547-1.122-2.255-1.81l-.005-.004-.004-.005c-.634-.634-1.952-1.952-2.529-4.175l-.002-.01c-.852-3.61.122-6.461 1.776-8.464 1.638-1.984 3.94-3.134 5.768-3.384 3.558-.519 6.292.214 8.1 1.534 1.704 1.243 2.583 3.013 2.489 4.683zM23.635 9.63c-1.579-1.152-4.06-1.86-7.432-1.367H16.2c-1.597.218-3.693 1.249-5.189 3.06-1.479 1.791-2.374 4.35-1.592 7.667.512 1.972 1.677 3.142 2.29 3.756.654.635 1.378 1.172 2.147 1.718l.37.262c.652.461 1.33.94 1.99 1.488 1.465 1.214 2.85 2.77 3.846 5.303.642-.64 1.068-1.134 1.378-1.653.377-.632.598-1.33.788-2.432a.457.457 0 01.871-.102c.175.407.816 1.06 1.715 1.125h.004c.86.07 1.414-.17 1.79-.507.388-.35.628-.843.77-1.343a.457.457 0 01.375-.327c.926-.132 1.805-.723 2.29-1.901a.457.457 0 01.092-.142c.398-.416.588-.746.669-1.005a1.033 1.033 0 00-.004-.659c-.07-.215-.2-.426-.37-.672a16.388 16.388 0 00-.107-.15c-.138-.196-.296-.417-.416-.641l-.006-.012c-.307-.614-.734-1.383-1.495-1.937a.457.457 0 01-.183-.443c.349-2.162-.888-3.642-2.284-4.524a.457.457 0 01-.21-.443c.17-1.363-.508-2.962-2.093-4.12z" fill="#000201"/><path fill-rule="evenodd" clip-rule="evenodd" d="M23.077 14.018c.063-1.31-1.264-2.419-2.693-2.03l-.009.003-.008.002c-1.611.372-2.105 2.732-.55 3.768a.457.457 0 11-.508.761c-2.18-1.453-1.588-4.849.843-5.418 1.995-.538 3.932 1 3.839 2.957a.457.457 0 01-.914-.043z" fill="#000201"/><path fill-rule="evenodd" clip-rule="evenodd" d="M21.04 13.491a.457.457 0 01.628.157c.275.459.562 1.216.28 2.158a.457.457 0 11-.876-.263 1.721 1.721 0 00-.188-1.424.457.457 0 01.157-.628zM30.141 22.857a.457.457 0 01.538.358c.026.127.058.247.095.38l.045.168c.049.185.103.412.103.632a.457.457 0 01-.915 0c0-.09-.024-.215-.072-.4l-.036-.131a7.098 7.098 0 01-.116-.47.457.457 0 01.358-.537zM26.447 24.966a.457.457 0 01.642-.071c.235.187.495.472.705.756.2.27.41.611.47.913a.457.457 0 01-.896.179c-.018-.088-.119-.291-.309-.547a3.4 3.4 0 00-.54-.587.457.457 0 01-.072-.643zM22.417 23.95a.457.457 0 01.55.34c.332 1.411.164 2.885.086 3.51a.457.457 0 11-.907-.113c.077-.62.221-1.95-.07-3.187a.457.457 0 01.34-.55zM25.617 18.584a.457.457 0 01.613-.204c.174.086.255.103.411.136.071.015.157.033.275.063a.457.457 0 11-.222.887c-.057-.015-.115-.027-.175-.04-.196-.04-.412-.086-.697-.229a.457.457 0 01-.205-.613zM18.736 14.356a.457.457 0 01-.034.646c-.278.25-.529.778-.52 1.377.007.57.251 1.183.932 1.638 1.4.907 2.39 2.066 3.125 3.699a.457.457 0 01-.834.375c-.667-1.48-1.544-2.501-2.79-3.308l-.006-.003c-.952-.635-1.33-1.54-1.342-2.389-.011-.823.322-1.618.823-2.069a.457.457 0 01.646.034z" fill="#000201"/><path fill-rule="evenodd" clip-rule="evenodd" d="M12.896 15.105c.898-2.408 3.479-4.25 6.602-3.617a.457.457 0 11-.181.896c-2.638-.534-4.807 1.01-5.564 3.04-.377 1.012-.398 2.13.042 3.166.439 1.032 1.354 2.022 2.922 2.742l.012.005.012.006c2.042 1.081 3.356 2.301 4.215 3.709.856 1.401 1.237 2.953 1.474 4.652a.457.457 0 11-.906.127c-.23-1.65-.588-3.057-1.348-4.303-.755-1.237-1.93-2.351-3.852-3.37-1.734-.8-2.83-1.939-3.37-3.21-.54-1.272-.508-2.634-.058-3.843z" fill="#000201"/></svg>
